<svg width="228" height="211" viewBox="0 0 228 211" fill="none" xmlns="http://www.w3.org/2000/svg">
<path d="M114.334 31.0024C110.314 25.1216 95.1071 0.0421309 62.5534 0.0435931C51.498 0.0440897 44.5641 2.35494 34.7948 7.52507C26.7787 11.7674 22.3561 14.8043 16.2663 21.5212C6.93926 31.8086 2.98407 44.1795 1.21126 52.847C-0.197976 59.737 -0.820285 75.0283 1.84354 88.3413C4.27273 100.482 7.61167 106.826 13.219 117.818C17.1215 125.467 19.697 129.658 24.5938 136.639C28.9458 142.844 31.8111 146.025 36.8396 151.696C40.8283 156.195 43.0233 158.781 47.4369 162.865C51.5374 166.659 61.7788 175.93 71.4739 183.697C83.4385 193.281 84.4046 195.121 103.249 206.749C111.256 211.689 114.334 213.101 124.444 206.749C137.047 198.83 142.533 195.006 153.41 186.516C160.406 181.055 164.338 177.973 170.837 171.929C174.527 168.497 176.526 166.495 180.021 162.865C184.104 158.623 186.26 156.118 190.147 151.696C195.23 145.916 198.248 142.798 202.864 136.639C208.123 129.621 210.988 125.557 215.11 117.818C220.905 106.935 224.061 100.442 226.413 88.3413C229.005 75.014 227.993 60.6308 226.413 53.5768C224.423 44.6913 220.309 31.9063 211.106 21.5212C205.267 14.9318 201.618 11.3441 193.852 7.19092C183.777 1.80331 177.054 -0.341186 165.14 0.0435931C131.367 1.13441 119.027 23.9484 114.334 31.0024Z" fill="url(#paint0_linear_1218_157684)"/>
<defs>
<linearGradient id="paint0_linear_1218_157684" x1="172.432" y1="37.168" x2="-61.1408" y2="278.616" gradientUnits="userSpaceOnUse">
<stop offset="0.026107" stop-color="#FE0F83"/>
<stop offset="1" stop-color="#4541FE"/>
</linearGradient>
</defs>
</svg>
