<svg width="74" height="34" viewBox="0 0 74 34" fill="none" xmlns="http://www.w3.org/2000/svg">
<g clip-path="url(#clip0_1218_157741)">
<g clip-path="url(#clip1_1218_157741)">
<path d="M53.7119 6.7677V0.464844H56.8474V1.02788C56.8474 4.78269 56.8629 8.53658 56.8412 12.2914C56.8329 13.7959 57.3917 15.0351 58.7136 15.9766C58.7971 16.0201 58.8849 16.0564 58.976 16.0852C58.0557 16.5916 57.2584 17.0443 56.4415 17.4635C56.3382 17.5155 56.0738 17.4348 55.9768 17.3402C55.5285 16.9005 55.1123 16.4349 54.6693 15.9618C53.8823 16.7864 52.8929 17.316 51.6907 17.4728C48.9694 17.8281 46.6745 16.6964 45.6634 14.3961C44.5873 11.9491 44.7907 9.58752 46.6105 7.43926C48.0182 5.7789 51.2002 4.95986 53.4206 6.59053C53.4816 6.63784 53.5528 6.67216 53.7119 6.7677ZM53.7119 11.6161C53.7263 10.7256 53.4805 9.90475 52.897 9.17846C52.0078 8.07186 50.3244 7.96519 49.2678 8.94285C47.8829 10.2238 47.8891 13.039 49.2792 14.3228C50.2242 15.1975 51.6897 15.2086 52.6368 14.3311C53.4485 13.5789 53.6974 12.6337 53.7078 11.6133L53.7119 11.6161Z" fill="#4541FE"/>
<path d="M62.4532 19.1035V20.9916C62.4532 22.0933 62.4677 23.196 62.4443 24.2977C62.4365 24.6337 62.5757 24.7445 62.9835 24.7373C64.4687 24.7248 65.954 24.7248 67.4393 24.7373C67.8849 24.7373 67.9962 24.5908 67.9962 24.2548C67.9784 22.7206 67.9885 21.1873 67.9885 19.6531V19.1357H71.3927V33.0214H68.0007V27.266H62.4811V33.058H60.5016C58.9899 33.058 58.9888 33.058 58.9888 31.858C58.9888 27.7923 58.9988 23.7267 58.9766 19.6611C58.9766 19.2072 59.1236 19.0669 59.6928 19.0928C60.5795 19.133 61.4718 19.1035 62.4532 19.1035Z" fill="#4541FE"/>
<path d="M15.5125 33.0559C14.5374 33.0559 13.6169 33.0675 12.6973 33.0362C12.6105 33.0362 12.4652 32.7581 12.4633 32.6078C12.4457 31.0134 12.4516 29.4189 12.4516 27.8244V27.2655C12.2429 27.253 12.0859 27.2369 11.9289 27.2369C10.6612 27.2369 9.39351 27.2458 8.12582 27.227C7.74551 27.2208 7.62459 27.3227 7.62947 27.6804C7.65092 29.2302 7.64019 30.78 7.64019 32.3306C7.64019 32.5524 7.64019 32.7778 7.64019 33.0282H4.65625V19.1383H7.64117V19.6749C7.64117 21.2104 7.6519 22.7449 7.63239 24.2804C7.63239 24.6381 7.75136 24.7436 8.13167 24.7383C9.41496 24.7213 10.6992 24.7231 11.9835 24.7383C12.3336 24.7383 12.4623 24.6551 12.4584 24.3099C12.4389 22.7458 12.4662 21.18 12.4428 19.6159C12.436 19.1947 12.5881 19.0722 13.0279 19.0918C13.6775 19.1227 14.3285 19.1227 14.9782 19.0918C15.415 19.0713 15.5223 19.2126 15.5203 19.6007C15.5057 23.6097 15.5116 27.6187 15.5116 31.6277L15.5125 33.0559Z" fill="#4541FE"/>
<path d="M40.351 32.3995L37.1744 33.058C36.857 32.2294 36.5406 31.4496 36.2624 30.6603C36.1487 30.3358 35.9832 30.1971 35.5489 30.2041C34.0165 30.2294 32.483 30.2198 30.9496 30.2093C30.6466 30.2093 30.4987 30.2774 30.4047 30.5382C30.1069 31.3676 29.7677 32.1875 29.4306 33.0475C28.4307 32.8495 27.4608 32.6681 26.5043 32.4483C26.4226 32.4291 26.3471 32.1291 26.4009 31.9974C26.7328 31.1758 27.1051 30.3655 27.4587 29.5499C28.7416 26.5966 30.0255 23.6433 31.3105 20.69C31.4987 20.2539 31.6724 19.8134 31.904 19.3939C31.9543 19.3219 32.0229 19.2602 32.1047 19.2132C32.1866 19.1662 32.2798 19.1349 32.3776 19.1218C32.908 19.0851 33.4478 19.141 33.9772 19.0956C34.4746 19.0537 34.6669 19.2421 34.821 19.6032C35.6048 21.4462 36.4144 23.2813 37.2137 25.1191C38.2395 27.4735 39.2645 29.8285 40.2889 32.184C40.3065 32.2355 40.3179 32.2913 40.351 32.3995ZM31.4304 27.7924H35.1529C34.5325 26.1815 33.9359 24.6176 33.3371 23.0528L33.2244 23.0738L31.4304 27.7924Z" fill="#4541FE"/>
<path d="M26.3824 30.5793V33.058H17.0703V19.1321C17.2751 19.1214 17.4658 19.1035 17.6576 19.1035C20.2528 19.1035 22.848 19.1151 25.4432 19.09C26.012 19.0838 26.1612 19.2361 26.1307 19.6779C26.0882 20.2998 26.1198 20.9253 26.1198 21.5875C25.8736 21.5965 25.684 21.6099 25.4868 21.6099C23.9811 21.6099 22.4743 21.6189 20.9675 21.6099C20.5775 21.6099 20.4162 21.6996 20.4228 22.0428C20.4489 22.7292 20.4467 23.4165 20.4228 24.1039C20.4108 24.4283 20.5764 24.5098 20.9359 24.5071C22.2063 24.4973 23.4778 24.5125 24.7492 24.5008C25.1164 24.5008 25.2765 24.5815 25.2635 24.905C25.2395 25.4714 25.2406 26.0395 25.2635 26.6076C25.2787 26.9374 25.1088 27.0064 24.746 27.0019C23.5115 26.9876 22.2771 27.0073 21.0416 26.9903C20.5862 26.984 20.3988 27.0871 20.4162 27.4948C20.4533 28.3748 20.4478 29.2566 20.4162 30.1366C20.4042 30.4951 20.56 30.5954 20.9773 30.5909C22.5375 30.5766 24.0988 30.5856 25.6622 30.5856L26.3824 30.5793Z" fill="#4541FE"/>
<path d="M29.4891 11.6844C29.4407 13.3583 28.7804 15.1323 27.1848 16.412C24.8899 18.2569 21.7137 17.7772 19.9131 15.3828C18.1419 13.0272 18.2055 9.38411 20.0535 7.08678C22.4005 4.17385 26.6696 4.55544 28.5717 7.85288C29.1865 8.91998 29.4853 10.0784 29.4891 11.6844ZM21.5496 11.0289C21.5334 12.1116 21.7042 12.9058 22.1273 13.6312C23.0589 15.2255 24.9819 15.2488 25.9496 13.6807C26.8404 12.2349 26.7588 10.0483 25.7598 8.69569C25.5782 8.4406 25.344 8.22948 25.0738 8.07729C24.8037 7.9251 24.5041 7.83556 24.1964 7.81499C23.8886 7.79442 23.5802 7.84334 23.293 7.95828C23.0058 8.07322 22.7468 8.25138 22.5343 8.48013C21.8019 9.25497 21.5742 10.2289 21.5496 11.0289Z" fill="#4541FE"/>
<path d="M61.6465 8.15944L60.4454 6.19401C61.393 5.61614 62.4831 5.26303 63.6175 5.16654C64.8952 5.042 66.1485 5.14903 67.2602 5.79509C68.6125 6.58126 69.1875 7.79068 69.2716 9.20053C69.3238 10.0762 69.2865 10.9519 69.2854 11.8276C69.2854 13.7804 69.7401 14.7115 71.3927 16.0484C70.6814 16.4541 69.9637 16.8161 69.3046 17.2539C68.8244 17.5721 68.5188 17.5254 68.1898 17.0943C67.9299 16.7538 67.6062 16.4531 67.2911 16.1136C66.3679 16.9211 65.2892 17.4135 64.0264 17.5156C61.9106 17.6859 59.7863 16.853 59.1655 14.8633C58.4723 12.6459 59.7277 10.6649 62.2535 10.0879C63.0872 9.89816 63.9667 9.86508 64.8282 9.78724C65.2285 9.75124 65.6353 9.7814 66.0335 9.7814C66.1869 8.39685 65.2647 7.5056 63.84 7.68073C63.133 7.76928 62.4419 7.98138 61.6465 8.15944ZM66.0197 11.8334C65.0475 11.8422 64.0679 11.6933 63.1671 12.1633C62.4632 12.5311 62.1278 13.2744 62.3152 14.0392C62.493 14.7475 63.0606 15.2155 63.8187 15.2788C64.6567 15.3488 65.8418 14.764 66.2273 14.0898C66.2658 14.0193 66.2824 13.9406 66.2752 13.8621C66.2028 13.2073 66.1134 12.5525 66.0197 11.8334Z" fill="#4541FE"/>
<path d="M12.1587 11.037H7.73043V17.5397H4.65625V2.01953H12.4163V4.75244H7.74337V8.22978H12.1587V11.037Z" fill="#4541FE"/>
<path d="M48.1163 19.0898H58.9774V21.546H55.1148V33.0564C54.118 33.0564 53.1865 33.0645 52.256 33.0439C52.1626 33.0439 52.008 32.8645 51.996 32.7596C51.9734 32.4468 51.9684 32.1331 51.9809 31.8198C51.9809 28.5916 51.9719 25.3634 51.992 22.1405C51.992 21.6975 51.8795 21.5352 51.3566 21.5523C50.2885 21.5881 49.2185 21.563 48.1133 21.563L48.1163 19.0898Z" fill="#4541FE"/>
<path d="M49.6551 33.058H41.9062V19.0898H44.7106V19.6482C44.7106 23.0864 44.7106 26.5249 44.7106 29.9636C44.7106 30.5543 44.7106 30.5552 45.3083 30.5561C46.5998 30.5561 47.8913 30.5651 49.1827 30.5498C49.5324 30.5498 49.6809 30.6297 49.6652 30.9987C49.6375 31.6675 49.6551 32.3389 49.6551 33.058Z" fill="#4541FE"/>
<path d="M13.9688 0.464844H17.0728V17.537H13.9688V0.464844Z" fill="#4541FE"/>
<path d="M29.4883 6.60235C30.3397 6.12797 31.1778 5.64859 32.0358 5.20417C32.1402 5.15024 32.4088 5.21016 32.4998 5.30404C33.006 5.80339 33.4811 6.3327 34.0039 6.89198C35.1606 6.00413 36.3949 5.1063 38.1588 5.12128C38.373 6.13596 38.5828 7.11868 38.8004 8.15234C37.374 8.23923 36.2573 8.80749 35.3892 9.75027C35.1659 10.0029 35.0373 10.3126 35.0218 10.6351C34.9907 12.7644 34.9952 14.8946 35.014 17.0268C35.014 17.4153 34.903 17.5551 34.459 17.5352C33.7014 17.5002 32.9422 17.5002 32.1846 17.5352C31.7172 17.5581 31.6295 17.3893 31.6295 17.0158C31.6451 15.0514 31.5929 13.0869 31.6517 11.1235C31.7039 9.36776 31.1822 7.8767 29.5971 6.76614C29.5538 6.72819 29.536 6.67526 29.4883 6.60235Z" fill="#4541FE"/>
<path d="M40.3609 17.5372V16.9676C40.3609 13.2181 40.3672 9.4676 40.3516 5.7181C40.3516 5.28115 40.4559 5.10123 40.9284 5.12282C41.7565 5.15675 42.5878 5.13207 43.4556 5.13207V17.5372H40.3609Z" fill="#4541FE"/>
<path d="M41.9076 3.56853C41.7021 3.57289 41.4979 3.53566 41.3072 3.45909C41.1164 3.38251 40.9432 3.26818 40.7979 3.12296C40.6525 2.97774 40.5381 2.80465 40.4614 2.61409C40.3848 2.42353 40.3475 2.21945 40.3519 2.01413C40.3494 1.60813 40.5074 1.21756 40.7916 0.927416C41.0759 0.637272 41.4633 0.47104 41.8696 0.4649C42.2834 0.461403 42.6819 0.620968 42.9788 0.909016C43.2756 1.19706 43.4469 1.59039 43.4556 2.00376C43.4569 2.20811 43.418 2.41072 43.3409 2.6C43.2638 2.78928 43.1501 2.96152 43.0063 3.10685C42.8626 3.25219 42.6915 3.36777 42.503 3.447C42.3145 3.52622 42.1121 3.56752 41.9076 3.56853Z" fill="#4541FE"/>
</g>
</g>
<defs>
<clipPath id="clip0_1218_157741">
<rect width="73.1483" height="33.1876" fill="white"/>
</clipPath>
<clipPath id="clip1_1218_157741">
<rect width="80.3775" height="40.1888" fill="white" transform="translate(4.10156)"/>
</clipPath>
</defs>
</svg>
