<svg xmlns="http://www.w3.org/2000/svg" width="85" height="18" fill="none" viewBox="0 0 85 18"><g fill="#FFBD15" stroke="#fff" stroke-width="1.252" clip-path="url(#a)"><path d="M9.546 2.734c-.486-1.498-2.606-1.498-3.092 0l-1.07 3.291a.374.374 0 0 1-.356.259h-3.46c-1.576 0-2.231 2.015-.957 2.941l2.8 2.035a.374.374 0 0 1 .136.418l-1.07 3.292c-.486 1.498 1.229 2.743 2.503 1.818l2.8-2.035a.374.374 0 0 1 .44 0l2.8 2.035c1.274.925 2.989-.32 2.502-1.818l-1.07-3.292a.374.374 0 0 1 .136-.418l2.8-2.035c1.275-.926.62-2.941-.955-2.941h-3.461a.374.374 0 0 1-.356-.259l-1.07-3.291ZM26.547 2.734c-.487-1.498-2.607-1.498-3.094 0l-1.069 3.291a.374.374 0 0 1-.356.259h-3.46c-1.576 0-2.231 2.015-.957 2.941l2.8 2.035a.374.374 0 0 1 .136.418l-1.07 3.292c-.486 1.498 1.229 2.743 2.503 1.818l2.8-2.035a.374.374 0 0 1 .44 0l2.8 2.035c1.274.925 2.989-.32 2.502-1.818l-1.07-3.292a.374.374 0 0 1 .136-.418l2.8-2.035c1.275-.926.62-2.941-.955-2.941h-3.461a.374.374 0 0 1-.356-.259l-1.07-3.291Z"/><path d="M43.039 2.572c-.5-1.468-2.577-1.468-3.078 0l-1.18 3.459a.374.374 0 0 1-.354.253h-3.71c-1.595 0-2.237 2.056-.926 2.963l2.917 2.018c.138.095.195.27.141.428l-1.133 3.323c-.507 1.484 1.174 2.755 2.464 1.862l3.107-2.15a.374.374 0 0 1 .426 0l3.107 2.15c1.29.893 2.97-.378 2.465-1.862l-1.134-3.323a.374.374 0 0 1 .141-.428l2.917-2.018c1.31-.907.669-2.963-.926-2.963h-3.71a.374.374 0 0 1-.354-.253l-1.18-3.459Z"/><path d="M59.547 2.734c-.487-1.498-2.607-1.498-3.093 0l-1.07 3.291a.374.374 0 0 1-.356.259h-3.46c-1.576 0-2.231 2.015-.957 2.941l2.8 2.035a.374.374 0 0 1 .136.418l-1.07 3.292c-.486 1.498 1.229 2.743 2.503 1.818l2.8-2.035a.374.374 0 0 1 .44 0l2.8 2.035c1.274.925 2.989-.32 2.502-1.818l-1.07-3.292a.374.374 0 0 1 .137-.418l2.8-2.035c1.274-.926.62-2.941-.956-2.941h-3.461a.374.374 0 0 1-.356-.259l-1.07-3.291ZM76.546 2.734c-.486-1.498-2.606-1.498-3.093 0l-1.069 3.291a.374.374 0 0 1-.356.259h-3.46c-1.576 0-2.231 2.015-.957 2.941l2.8 2.035a.374.374 0 0 1 .136.418l-1.07 3.292c-.486 1.498 1.229 2.743 2.503 1.818l2.8-2.035a.374.374 0 0 1 .44 0l2.8 2.035c1.274.925 2.989-.32 2.502-1.818l-1.07-3.292a.374.374 0 0 1 .136-.418l2.8-2.035c1.275-.926.62-2.941-.955-2.941h-3.461a.374.374 0 0 1-.356-.259l-1.07-3.291Z"/></g><defs><clipPath id="a"><path fill="#fff" d="M0 0h85v18H0z"/></clipPath></defs></svg>