<svg width="78" height="38" viewBox="0 0 78 38" fill="none" xmlns="http://www.w3.org/2000/svg">
<path d="M0.540078 13.4644H3.2563V8.15737H8.7703V13.4644H11.4803V0.617188H8.7703V5.9179H3.2563V0.617188H0.540078V13.4644Z" fill="white"/>
<path d="M18.0607 13.6526C20.4444 13.6526 22.0503 12.492 22.4267 10.7042L19.9551 10.5411C19.6854 11.2751 18.9953 11.6577 18.1046 11.6577C16.7684 11.6577 15.9216 10.7732 15.9216 9.33671V9.33043H22.4832V8.59649C22.4832 5.32196 20.5009 3.70352 17.954 3.70352C15.1186 3.70352 13.2806 5.71716 13.2806 8.69058C13.2806 11.7456 15.0935 13.6526 18.0607 13.6526ZM15.9216 7.67435C15.978 6.57657 16.8123 5.69834 17.9979 5.69834C19.1584 5.69834 19.9614 6.52639 19.9677 7.67435H15.9216Z" fill="white"/>
<path d="M26.9746 13.6463C28.3986 13.6463 29.3208 13.0252 29.7912 12.1282H29.8665V13.4644H32.4008V6.9655C32.4008 4.66957 30.4562 3.70352 28.3108 3.70352C26.0023 3.70352 24.4842 4.80757 24.1141 6.56402L26.5857 6.76476C26.7676 6.12491 27.3385 5.65443 28.2983 5.65443C29.2078 5.65443 29.7285 6.11236 29.7285 6.90277V6.94041C29.7285 7.56144 29.0698 7.64299 27.3949 7.80608C25.4879 7.98173 23.7754 8.62158 23.7754 10.7732C23.7754 12.6802 25.1366 13.6463 26.9746 13.6463ZM27.74 11.802C26.9182 11.802 26.3285 11.4194 26.3285 10.6854C26.3285 9.93264 26.9496 9.56253 27.8905 9.4308C28.4739 9.34925 29.4274 9.21124 29.7473 8.99796V10.0205C29.7473 11.0304 28.913 11.802 27.74 11.802Z" fill="white"/>
<path d="M37.1464 0.617188H34.4741V13.4644H37.1464V0.617188Z" fill="white"/>
<path d="M44.4121 3.82898H42.5992V1.5205H39.9269V3.82898H38.6096V5.83635H39.9269V10.8548C39.9143 12.743 41.2003 13.6776 43.1387 13.5961C43.8287 13.571 44.318 13.433 44.5878 13.3452L44.1675 11.3566C44.0357 11.3817 43.7534 11.4444 43.5025 11.4444C42.9693 11.4444 42.5992 11.2437 42.5992 10.5035V5.83635H44.4121V3.82898Z" fill="white"/>
<path d="M49.0322 7.89391C49.0385 6.65185 49.7975 5.92417 50.889 5.92417C51.9743 5.92417 52.6141 6.62048 52.6078 7.80608V13.4644H55.2801V7.32933C55.2864 5.07104 53.9565 3.70352 51.9492 3.70352C50.4875 3.70352 49.509 4.39355 49.0698 5.52897H48.9569V0.617188H46.3599V13.4644H49.0322V7.89391Z" fill="white"/>
<path d="M58.688 17.0588C60.6765 17.0588 61.7367 16.0489 62.2761 14.5057L66.0211 3.84153L63.192 3.82898L61.1784 10.905H61.078L59.0832 3.82898H56.2728L59.7293 13.7404L59.5725 14.1481C59.1961 15.0201 58.55 15.0828 57.609 14.788L57.0068 16.7891C57.3895 16.9459 58.0105 17.0588 58.688 17.0588Z" fill="white"/>
<path d="M0.0507812 22.8768H3.98397V33.4845H6.66883V22.8768H10.602V20.6374H0.0507812V22.8768Z" fill="white"/>
<path d="M15.2456 33.6727C18.1689 33.6727 19.9881 31.6716 19.9881 28.7045C19.9881 25.7185 18.1689 23.7237 15.2456 23.7237C12.3224 23.7237 10.5032 25.7185 10.5032 28.7045C10.5032 31.6716 12.3224 33.6727 15.2456 33.6727ZM15.2582 31.6026C13.9095 31.6026 13.2194 30.3668 13.2194 28.6857C13.2194 27.0045 13.9095 25.7624 15.2582 25.7624C16.5818 25.7624 17.2718 27.0045 17.2718 28.6857C17.2718 30.3668 16.5818 31.6026 15.2582 31.6026Z" fill="white"/>
<path d="M26.0666 37.2358C28.8205 37.2358 30.7777 35.9812 30.7777 33.5786V23.8492H28.1242V25.4676H28.0238C27.6662 24.6835 26.8821 23.7237 25.2699 23.7237C23.1559 23.7237 21.3681 25.3672 21.3681 28.648C21.3681 31.8536 23.1057 33.3465 25.2762 33.3465C26.8131 33.3465 27.6725 32.575 28.0238 31.7783H28.1367V33.541C28.1367 34.8019 27.2899 35.3163 26.1294 35.3163C24.95 35.3163 24.3541 34.8019 24.1345 34.2812L21.663 34.6137C21.9829 36.069 23.4696 37.2358 26.0666 37.2358ZM26.1231 31.3392C24.812 31.3392 24.0969 30.2978 24.0969 28.6355C24.0969 26.9982 24.7995 25.8503 26.1231 25.8503C27.4216 25.8503 28.1493 26.948 28.1493 28.6355C28.1493 30.3355 27.4091 31.3392 26.1231 31.3392Z" fill="white"/>
<path d="M37.2954 33.6727C39.6791 33.6727 41.285 32.5122 41.6614 30.7244L39.1898 30.5613C38.9201 31.2953 38.23 31.6779 37.3393 31.6779C36.0031 31.6779 35.1562 30.7934 35.1562 29.3569V29.3506H41.7178V28.6167C41.7178 25.3421 39.7356 23.7237 37.1887 23.7237C34.3533 23.7237 32.5153 25.7373 32.5153 28.7108C32.5153 31.7657 34.3282 33.6727 37.2954 33.6727ZM35.1562 27.6945C35.2127 26.5968 36.047 25.7185 37.2326 25.7185C38.3931 25.7185 39.1961 26.5466 39.2024 27.6945H35.1562Z" fill="white"/>
<path d="M48.5868 23.8492H46.7739V21.5407H44.1016V23.8492H42.7843V25.8565H44.1016V30.875C44.0891 32.7631 45.375 33.6978 47.3134 33.6163C48.0034 33.5912 48.4927 33.4532 48.7625 33.3654L48.3422 31.3768C48.2104 31.4019 47.9281 31.4646 47.6772 31.4646C47.144 31.4646 46.7739 31.2639 46.7739 30.5237V25.8565H48.5868V23.8492Z" fill="white"/>
<path d="M53.2069 27.9141C53.2132 26.672 53.9722 25.9444 55.0637 25.9444C56.149 25.9444 56.7888 26.6407 56.7825 27.8263V33.4845H59.4548V27.3495C59.4611 25.0912 58.1312 23.7237 56.1239 23.7237C54.6623 23.7237 53.6837 24.4137 53.2445 25.5492H53.1316V20.6374H50.5346V33.4845H53.2069V27.9141Z" fill="white"/>
<path d="M65.949 33.6727C68.3328 33.6727 69.9387 32.5122 70.315 30.7244L67.8435 30.5613C67.5737 31.2953 66.8837 31.6779 65.9929 31.6779C64.6568 31.6779 63.8099 30.7934 63.8099 29.3569V29.3506H70.3715V28.6167C70.3715 25.3421 68.3892 23.7237 65.8424 23.7237C63.007 23.7237 61.169 25.7373 61.169 28.7108C61.169 31.7657 62.9819 33.6727 65.949 33.6727ZM63.8099 27.6945C63.8664 26.5968 64.7007 25.7185 65.8863 25.7185C67.0468 25.7185 67.8497 26.5466 67.856 27.6945H63.8099Z" fill="white"/>
<path d="M72.1154 33.4845H74.7877V28.0333C74.7877 26.8477 75.6534 26.0322 76.8327 26.0322C77.2028 26.0322 77.7109 26.0949 77.9619 26.1765V23.8053C77.7235 23.7488 77.391 23.7112 77.1213 23.7112C76.0423 23.7112 75.1578 24.3385 74.8065 25.5303H74.7062V23.8492H72.1154V33.4845Z" fill="white"/>
</svg>
