<svg width="136" height="40" viewBox="0 0 136 40" fill="none" xmlns="http://www.w3.org/2000/svg">
<g clip-path="url(#clip0_1334_163012)">
<path d="M125.17 0.00013H10.8363C10.4195 0.00013 10.0078 0.00013 9.59213 0.00213C9.24418 0.00413 8.89901 0.00994 8.54773 0.01483C7.78457 0.0227318 7.02321 0.0818063 6.27027 0.19154C5.51838 0.303663 4.79004 0.515046 4.10989 0.81854C3.43057 1.1246 2.80986 1.5223 2.27027 1.9972C1.72785 2.47077 1.2757 3.01815 0.931203 3.61829C0.58576 4.21724 0.346228 4.85907 0.220882 5.52161C0.0943432 6.18332 0.0262517 6.85265 0.0172182 7.52361C0.00667134 7.83021 0.00555756 8.13783 0 8.44447V31.5587C0.00555756 31.8692 0.00667134 32.17 0.0172182 32.4806C0.0262544 33.1516 0.0943459 33.8209 0.220882 34.4825C0.345882 35.1455 0.585428 35.7877 0.931203 36.3868C1.27554 36.985 1.72775 37.5302 2.27027 38.0011C2.80781 38.4781 3.42892 38.8761 4.10989 39.1798C4.79003 39.4841 5.51829 39.6968 6.27027 39.8106C7.02334 39.9195 7.78462 39.9786 8.54773 39.9874C8.89901 39.9942 9.24418 39.9981 9.59213 39.9981C10.0078 40.0001 10.4196 40.0001 10.8363 40.0001H125.17C125.578 40.0001 125.993 40.0001 126.402 39.9981C126.748 39.9981 127.103 39.9942 127.45 39.9874C128.211 39.9791 128.971 39.92 129.723 39.8106C130.477 39.696 131.208 39.4834 131.891 39.1798C132.572 38.8759 133.192 38.478 133.729 38.0011C134.27 37.5284 134.724 36.9836 135.072 36.3868C135.415 35.7872 135.653 35.1451 135.776 34.4825C135.902 33.8208 135.973 33.1516 135.987 32.4806C135.991 32.17 135.991 31.8692 135.991 31.5587C136 31.1954 136 30.8341 136 30.4649V9.53626C136 9.17005 136 8.80677 135.991 8.44447C135.991 8.13783 135.991 7.83021 135.987 7.52357C135.973 6.85255 135.902 6.18337 135.776 5.52157C135.652 4.85941 135.415 4.21763 135.072 3.61825C134.371 2.41533 133.258 1.43616 131.891 0.81845C131.208 0.515697 130.477 0.30437 129.723 0.19145C128.971 0.0812328 128.211 0.0221378 127.45 0.01469C127.103 0.00981 126.748 0.00395 126.402 0.002C125.993 0 125.578 0 125.17 0V0.00013Z" fill="#A6A6A6"/>
<path d="M9.59767 39.125C9.2514 39.125 8.91349 39.1211 8.56993 39.1143C7.85823 39.1061 7.14818 39.0516 6.44563 38.9512C5.79053 38.8519 5.15592 38.6673 4.56272 38.4033C3.97496 38.1415 3.43888 37.7983 2.97501 37.3867C2.50442 36.98 2.11264 36.5082 1.81518 35.9902C1.51445 35.4688 1.30632 34.9099 1.19806 34.333C1.08114 33.7131 1.01788 33.0863 1.00883 32.458C1.00162 32.2471 0.992188 31.5449 0.992188 31.5449V8.44434C0.992188 8.44434 1.00223 7.75293 1.00888 7.5498C1.01755 6.92248 1.08044 6.29665 1.19701 5.67773C1.30548 5.09925 1.51376 4.53875 1.81466 4.01563C2.11102 3.49794 2.50063 3.02586 2.96838 2.61768C3.43561 2.20562 3.9734 1.8606 4.56216 1.59521C5.154 1.33209 5.78741 1.14873 6.44118 1.05127C7.14605 0.949836 7.85856 0.894996 8.57273 0.88721L9.59823 0.875H126.396L127.434 0.8877C128.142 0.895099 128.848 0.94945 129.546 1.05029C130.206 1.14898 130.846 1.33362 131.445 1.59814C132.625 2.13299 133.584 2.97916 134.19 4.01807C134.486 4.53758 134.691 5.09351 134.798 5.66699C134.916 6.29099 134.982 6.92174 134.996 7.5542C134.999 7.8374 134.999 8.1416 134.999 8.44434C135.008 8.81934 135.008 9.17627 135.008 9.53613V30.4648C135.008 30.8281 135.008 31.1826 134.999 31.54C134.999 31.8652 134.999 32.1631 134.994 32.4697C134.981 33.0909 134.916 33.7104 134.8 34.3232C134.694 34.9043 134.487 35.4675 134.186 35.9932C133.887 36.5056 133.497 36.9733 133.032 37.3789C132.568 37.7927 132.031 38.1379 131.442 38.4014C130.845 38.6674 130.206 38.8527 129.546 38.9512C128.844 39.0522 128.133 39.1067 127.422 39.1143C127.089 39.1211 126.74 39.125 126.402 39.125L125.17 39.127L9.59767 39.125Z" fill="#101722"/>
<path d="M30.0454 19.6455C30.06 18.518 30.3603 17.4125 30.9185 16.4318C31.4766 15.4511 32.2745 14.6272 33.2378 14.0366C32.6258 13.1651 31.8185 12.4479 30.8799 11.9419C29.9414 11.4359 28.8975 11.1552 27.8311 11.1219C25.5563 10.8838 23.3509 12.4793 22.1917 12.4793C21.0101 12.4793 19.2253 11.1455 17.3034 11.185C16.0603 11.225 14.8487 11.5855 13.7869 12.2313C12.725 12.8771 11.8489 13.7862 11.2441 14.87C8.62419 19.3932 10.5784 26.041 13.0881 29.6972C14.3437 31.4876 15.8112 33.4875 17.7314 33.4166C19.6104 33.3389 20.3122 32.2218 22.5803 32.2218C24.8273 32.2218 25.4857 33.4166 27.4449 33.3715C29.4611 33.3389 30.7315 31.5732 31.9431 29.7658C32.8452 28.4901 33.5394 27.0802 34 25.5883C32.8286 25.0942 31.829 24.2672 31.1257 23.2104C30.4225 22.1537 30.0468 20.9138 30.0454 19.6455Z" fill="white"/>
<path d="M26.3433 8.71538C27.4427 7.39935 27.9843 5.70782 27.8531 4C26.1736 4.17591 24.6221 4.97638 23.5079 6.24192C22.9631 6.86017 22.5459 7.57942 22.2801 8.35857C22.0142 9.13771 21.905 9.96146 21.9586 10.7827C22.7987 10.7914 23.6297 10.6098 24.3893 10.2517C25.1488 9.89359 25.8169 9.3683 26.3433 8.71538Z" fill="white"/>
<path d="M51.4205 27.1397H46.6739L45.5339 30.4961H43.5234L48.0194 18.0781H50.1083L54.6043 30.4961H52.5595L51.4205 27.1397ZM47.1655 25.5908H50.928L49.0732 20.1436H49.0213L47.1655 25.5908Z" fill="white"/>
<path d="M64.314 25.9675C64.314 28.781 62.8039 30.5886 60.5251 30.5886C59.9478 30.6187 59.3737 30.4861 58.8685 30.206C58.3633 29.9258 57.9474 29.5095 57.6685 29.0046H57.6253V33.489H55.7617V21.4401H57.5656V22.946H57.5999C57.8917 22.4435 58.3146 22.0294 58.8236 21.7475C59.3327 21.4657 59.9089 21.3267 60.4908 21.3454C62.7951 21.3454 64.314 23.1618 64.314 25.9675ZM62.3985 25.9675C62.3985 24.1345 61.4486 22.9294 59.9992 22.9294C58.5753 22.9294 57.6175 24.1599 57.6175 25.9675C57.6175 27.7917 58.5753 29.0134 59.9992 29.0134C61.4486 29.0134 62.3985 27.8171 62.3985 25.9675Z" fill="white"/>
<path d="M74.3062 25.9675C74.3062 28.781 72.7961 30.5886 70.5173 30.5886C69.94 30.6187 69.3659 30.4861 68.8607 30.2059C68.3555 29.9258 67.9396 29.5095 67.6606 29.0046H67.6175V33.489H65.7539V21.4401H67.5578V22.946H67.5921C67.8838 22.4435 68.3067 22.0293 68.8158 21.7475C69.3249 21.4657 69.901 21.3267 70.483 21.3454C72.7873 21.3454 74.3062 23.1618 74.3062 25.9675ZM72.3907 25.9675C72.3907 24.1345 71.4407 22.9294 69.9914 22.9294C68.5675 22.9294 67.6097 24.1599 67.6097 25.9675C67.6097 27.7917 68.5675 29.0134 69.9914 29.0134C71.4408 29.0134 72.3907 27.8171 72.3907 25.9675H72.3907Z" fill="white"/>
<path d="M80.9116 27.0362C81.0497 28.2676 82.2494 29.0762 83.8887 29.0762C85.4595 29.0762 86.5896 28.2676 86.5896 27.1572C86.5896 26.1934 85.908 25.6162 84.2941 25.2207L82.6803 24.833C80.3936 24.2822 79.332 23.2158 79.332 21.4854C79.332 19.3428 81.2044 17.8711 83.8632 17.8711C86.4946 17.8711 88.2985 19.3428 88.3592 21.4854H86.478C86.3653 20.2461 85.3381 19.4981 83.8368 19.4981C82.3355 19.4981 81.3082 20.2549 81.3082 21.3565C81.3082 22.2344 81.9644 22.751 83.5694 23.1465L84.9414 23.4824C87.4964 24.0849 88.558 25.1084 88.558 26.9248C88.558 29.248 86.7022 30.7031 83.7506 30.7031C80.989 30.7031 79.1244 29.2822 79.0039 27.0361L80.9116 27.0362Z" fill="white"/>
<path d="M92.5792 19.3008V21.4434H94.3058V22.915H92.5792V27.9062C92.5792 28.6816 92.9249 29.043 93.6839 29.043C93.8889 29.0394 94.0935 29.0251 94.2969 29V30.4629C93.9557 30.5264 93.6089 30.5552 93.2618 30.5488C91.4237 30.5488 90.7068 29.8603 90.7068 28.1045V22.915H89.3867V21.4434H90.7068V19.3008H92.5792Z" fill="white"/>
<path d="M95.3047 25.9707C95.3047 23.1221 96.9871 21.332 99.6107 21.332C102.243 21.332 103.918 23.122 103.918 25.9707C103.918 28.8272 102.252 30.6094 99.6107 30.6094C96.9704 30.6094 95.3047 28.8271 95.3047 25.9707ZM102.019 25.9707C102.019 24.0166 101.121 22.8633 99.6107 22.8633C98.1006 22.8633 97.2035 24.0254 97.2035 25.9707C97.2035 27.9326 98.1006 29.0772 99.6107 29.0772C101.121 29.0772 102.019 27.9326 102.019 25.9707H102.019Z" fill="white"/>
<path d="M105.453 21.4401H107.231V22.9811H107.274C107.394 22.4998 107.677 22.0744 108.074 21.7766C108.472 21.4787 108.961 21.3264 109.458 21.3453C109.672 21.3446 109.886 21.3678 110.096 21.4147V23.1529C109.825 23.0703 109.542 23.0324 109.259 23.0406C108.988 23.0297 108.718 23.0773 108.468 23.1802C108.217 23.2831 107.992 23.4388 107.807 23.6367C107.623 23.8346 107.483 24.0699 107.399 24.3266C107.314 24.5833 107.286 24.8552 107.317 25.1236V30.4938H105.453L105.453 21.4401Z" fill="white"/>
<path d="M118.69 27.8379C118.439 29.4814 116.834 30.6094 114.781 30.6094C112.139 30.6094 110.5 28.8447 110.5 26.0137C110.5 23.1738 112.148 21.332 114.702 21.332C117.214 21.332 118.794 23.0527 118.794 25.7978V26.4346H112.381V26.5469C112.352 26.8801 112.393 27.2157 112.504 27.5316C112.614 27.8474 112.791 28.1362 113.022 28.3787C113.253 28.6213 113.533 28.8121 113.844 28.9384C114.154 29.0647 114.488 29.1236 114.824 29.1113C115.264 29.1525 115.706 29.0508 116.084 28.8213C116.462 28.5919 116.755 28.247 116.92 27.8379L118.69 27.8379ZM112.39 25.1357H116.929C116.946 24.8361 116.9 24.5363 116.795 24.2551C116.69 23.9739 116.528 23.7174 116.319 23.5016C116.11 23.2858 115.858 23.1155 115.58 23.0013C115.302 22.8871 115.003 22.8314 114.702 22.8379C114.399 22.8361 114.098 22.8942 113.817 23.009C113.536 23.1237 113.281 23.2928 113.066 23.5064C112.851 23.72 112.681 23.974 112.565 24.2537C112.449 24.5333 112.389 24.8331 112.39 25.1357V25.1357Z" fill="white"/>
<path d="M46.9348 8.73333C47.3255 8.70537 47.7175 8.76423 48.0827 8.90567C48.4478 9.0471 48.7769 9.26758 49.0462 9.55121C49.3156 9.83483 49.5184 10.1745 49.6402 10.5458C49.7619 10.9171 49.7995 11.3107 49.7503 11.6982C49.7503 13.6044 48.7171 14.7002 46.9348 14.7002H44.7734V8.73333H46.9348ZM45.7028 13.8563H46.8309C47.1101 13.873 47.3895 13.8273 47.6488 13.7227C47.9081 13.6181 48.1407 13.4571 48.3297 13.2516C48.5187 13.046 48.6594 12.801 48.7415 12.5344C48.8236 12.2678 48.845 11.9863 48.8042 11.7103C48.8421 11.4355 48.8184 11.1557 48.7351 10.8911C48.6517 10.6264 48.5107 10.3834 48.3221 10.1795C48.1335 9.97554 47.902 9.81573 47.6442 9.71149C47.3864 9.60726 47.1087 9.56117 46.8309 9.57654H45.7028V13.8563Z" fill="white"/>
<path d="M50.7991 12.4458C50.7707 12.1498 50.8047 11.8513 50.8988 11.5692C50.9929 11.2871 51.1451 11.0278 51.3456 10.8078C51.5461 10.5878 51.7905 10.4121 52.0631 10.2918C52.3357 10.1715 52.6305 10.1094 52.9286 10.1094C53.2267 10.1094 53.5216 10.1715 53.7942 10.2918C54.0668 10.4121 54.3112 10.5878 54.5117 10.8078C54.7122 11.0278 54.8644 11.2871 54.9585 11.5692C55.0526 11.8513 55.0865 12.1498 55.0581 12.4458C55.0871 12.742 55.0535 13.041 54.9597 13.3235C54.8658 13.606 54.7137 13.8658 54.5132 14.0862C54.3126 14.3067 54.068 14.4828 53.7951 14.6033C53.5222 14.7239 53.2271 14.7861 52.9286 14.7861C52.6302 14.7861 52.335 14.7239 52.0621 14.6033C51.7892 14.4828 51.5447 14.3067 51.3441 14.0862C51.1436 13.8658 50.9915 13.606 50.8976 13.3235C50.8038 13.041 50.7702 12.742 50.7991 12.4458ZM54.1415 12.4458C54.1415 11.4697 53.7018 10.8989 52.9301 10.8989C52.1555 10.8989 51.7197 11.4697 51.7197 12.4458C51.7197 13.4297 52.1555 13.9961 52.9301 13.9961C53.7018 13.996 54.1415 13.4257 54.1415 12.4458H54.1415Z" fill="white"/>
<path d="M60.7211 14.6982H59.7966L58.8633 11.3818H58.7928L57.8635 14.6982H56.9478L55.7031 10.1953H56.607L57.4159 13.6313H57.4825L58.4109 10.1953H59.2658L60.1942 13.6313H60.2647L61.0697 10.1953H61.9609L60.7211 14.6982Z" fill="white"/>
<path d="M63.0078 10.1929H63.8657V10.9082H63.9323C64.0452 10.6513 64.2358 10.436 64.4773 10.2921C64.7189 10.1483 64.9994 10.0833 65.2798 10.106C65.4995 10.0895 65.7201 10.1226 65.9253 10.2027C66.1305 10.2827 66.3149 10.4079 66.465 10.5687C66.6152 10.7295 66.727 10.922 66.7924 11.1318C66.8578 11.3416 66.875 11.5634 66.8428 11.7808V14.6958H65.9516V12.004C65.9516 11.2803 65.6363 10.9205 64.9772 10.9205C64.828 10.9135 64.6791 10.9388 64.5407 10.9947C64.4022 11.0505 64.2775 11.1355 64.1751 11.2439C64.0727 11.3523 63.995 11.4815 63.9473 11.6226C63.8997 11.7637 63.8832 11.9135 63.899 12.0616V14.6958H63.0078L63.0078 10.1929Z" fill="white"/>
<path d="M68.2617 8.4375H69.1529V14.6982H68.2617V8.4375Z" fill="white"/>
<path d="M70.3929 12.4458C70.3645 12.1499 70.3985 11.8513 70.4926 11.5692C70.5867 11.2872 70.7389 11.0278 70.9394 10.8078C71.14 10.5878 71.3844 10.4121 71.657 10.2918C71.9297 10.1715 72.2245 10.1094 72.5226 10.1094C72.8207 10.1094 73.1156 10.1715 73.3882 10.2918C73.6608 10.4121 73.9052 10.5878 74.1058 10.8078C74.3063 11.0278 74.4585 11.2872 74.5526 11.5692C74.6467 11.8513 74.6807 12.1499 74.6523 12.4458C74.6812 12.7421 74.6477 13.0411 74.5538 13.3236C74.4599 13.6061 74.3078 13.8659 74.1072 14.0863C73.9066 14.3067 73.662 14.4829 73.3891 14.6034C73.1162 14.7239 72.8211 14.7862 72.5226 14.7862C72.2241 14.7862 71.929 14.7239 71.6561 14.6034C71.3832 14.4829 71.1386 14.3067 70.938 14.0863C70.7374 13.8659 70.5853 13.6061 70.4914 13.3236C70.3975 13.0411 70.364 12.7421 70.3929 12.4458ZM73.7352 12.4458C73.7352 11.4698 73.2955 10.899 72.5238 10.899C71.7492 10.899 71.3134 11.4698 71.3134 12.4458C71.3134 13.4297 71.7492 13.9961 72.5238 13.9961C73.2955 13.9961 73.7352 13.4258 73.7352 12.4458H73.7352Z" fill="white"/>
<path d="M75.5898 13.4258C75.5898 12.6152 76.1951 12.1479 77.2693 12.0815L78.4925 12.0112V11.6226C78.4925 11.147 78.1772 10.8784 77.568 10.8784C77.0706 10.8784 76.7258 11.0605 76.6269 11.3789H75.7642C75.8552 10.6055 76.5848 10.1094 77.6092 10.1094C78.7413 10.1094 79.3798 10.6714 79.3798 11.6226V14.6992H78.5219V14.0664H78.4514C78.3083 14.2934 78.1073 14.4784 77.869 14.6027C77.6307 14.7269 77.3636 14.7858 77.095 14.7734C76.9055 14.7931 76.7139 14.7729 76.5326 14.7142C76.3513 14.6555 76.1844 14.5596 76.0426 14.4326C75.9008 14.3056 75.7872 14.1504 75.7093 13.977C75.6313 13.8036 75.5906 13.6158 75.5898 13.4258ZM78.4925 13.041V12.6645L77.3898 12.7349C76.7679 12.7764 76.4859 12.9873 76.4859 13.3843C76.4859 13.7895 76.8384 14.0254 77.3232 14.0254C77.4653 14.0397 77.6088 14.0254 77.7452 13.9833C77.8815 13.9412 78.008 13.8722 78.1171 13.7804C78.2262 13.6885 78.3157 13.5757 78.3802 13.4487C78.4447 13.3217 78.4829 13.183 78.4925 13.041Z" fill="white"/>
<path d="M80.5508 12.4448C80.5508 11.022 81.2843 10.1206 82.4252 10.1206C82.7074 10.1077 82.9875 10.1751 83.2327 10.315C83.4779 10.4548 83.6781 10.6615 83.8099 10.9106H83.8765V8.4375H84.7677V14.6982H83.9137V13.9868H83.8432C83.7012 14.2343 83.494 14.4383 83.2441 14.5768C82.9941 14.7153 82.7109 14.783 82.4252 14.7724C81.2765 14.7725 80.5508 13.8711 80.5508 12.4448ZM81.4714 12.4448C81.4714 13.3999 81.9228 13.9746 82.6779 13.9746C83.429 13.9746 83.8932 13.3916 83.8932 12.4487C83.8932 11.5103 83.4241 10.919 82.6779 10.919C81.9277 10.919 81.4713 11.4976 81.4713 12.4448H81.4714Z" fill="white"/>
<path d="M88.4554 12.4458C88.427 12.1498 88.4609 11.8513 88.555 11.5692C88.6491 11.2871 88.8013 11.0278 89.0018 10.8078C89.2023 10.5878 89.4467 10.4121 89.7193 10.2918C89.992 10.1715 90.2868 10.1094 90.5849 10.1094C90.883 10.1094 91.1778 10.1715 91.4504 10.2918C91.723 10.4121 91.9674 10.5878 92.1679 10.8078C92.3684 11.0278 92.5206 11.2871 92.6147 11.5692C92.7088 11.8513 92.7428 12.1498 92.7144 12.4458C92.7433 12.742 92.7098 13.041 92.6159 13.3235C92.522 13.606 92.37 13.8658 92.1694 14.0862C91.9688 14.3067 91.7243 14.4828 91.4514 14.6033C91.1785 14.7239 90.8833 14.7861 90.5849 14.7861C90.2864 14.7861 89.9913 14.7239 89.7184 14.6033C89.4455 14.4828 89.2009 14.3067 89.0004 14.0862C88.7998 13.8658 88.6477 13.606 88.5539 13.3235C88.46 13.041 88.4265 12.742 88.4554 12.4458ZM91.7977 12.4458C91.7977 11.4697 91.358 10.8989 90.5864 10.8989C89.8117 10.8989 89.376 11.4697 89.376 12.4458C89.376 13.4297 89.8118 13.9961 90.5864 13.9961C91.358 13.996 91.7977 13.4257 91.7977 12.4458Z" fill="white"/>
<path d="M93.9102 10.1929H94.768V10.9082H94.8346C94.9476 10.6513 95.1381 10.436 95.3797 10.2921C95.6212 10.1483 95.9018 10.0833 96.1822 10.106C96.4019 10.0895 96.6225 10.1226 96.8277 10.2027C97.0328 10.2827 97.2173 10.4079 97.3674 10.5687C97.5175 10.7295 97.6294 10.922 97.6948 11.1318C97.7602 11.3416 97.7774 11.5634 97.7451 11.7808V14.6958H96.854V12.004C96.854 11.2803 96.5386 10.9205 95.8796 10.9205C95.7304 10.9135 95.5815 10.9388 95.443 10.9947C95.3046 11.0505 95.1799 11.1355 95.0775 11.2439C94.975 11.3523 94.8973 11.4815 94.8497 11.6226C94.802 11.7637 94.7855 11.9135 94.8013 12.0616V14.6958H93.9102V10.1929Z" fill="white"/>
<path d="M102.781 9.07422V10.2158H103.759V10.9644H102.781V13.2798C102.781 13.7515 102.976 13.958 103.419 13.958C103.533 13.9576 103.646 13.9508 103.759 13.9375V14.6777C103.599 14.7063 103.437 14.7215 103.274 14.7231C102.283 14.7231 101.889 14.3755 101.889 13.5073V10.9643H101.172V10.2158H101.889V9.07422H102.781Z" fill="white"/>
<path d="M104.977 8.4375H105.86V10.919H105.93C106.049 10.6596 106.245 10.443 106.491 10.2987C106.737 10.1543 107.022 10.0893 107.307 10.1123C107.526 10.1004 107.744 10.1368 107.947 10.2189C108.15 10.3009 108.332 10.4266 108.481 10.5869C108.629 10.7473 108.74 10.9383 108.806 11.1465C108.872 11.3546 108.892 11.5747 108.862 11.791V14.6982H107.97V12.0103C107.97 11.291 107.634 10.9268 107.005 10.9268C106.852 10.9142 106.698 10.9352 106.553 10.9883C106.409 11.0413 106.278 11.1252 106.17 11.2339C106.062 11.3426 105.979 11.4737 105.926 11.6178C105.874 11.7619 105.854 11.9157 105.868 12.0683V14.6982H104.977L104.977 8.4375Z" fill="white"/>
<path d="M114.058 13.4835C113.937 13.895 113.675 14.251 113.317 14.4891C112.959 14.7273 112.529 14.8324 112.101 14.7862C111.804 14.794 111.508 14.7372 111.235 14.6197C110.962 14.5022 110.717 14.3267 110.519 14.1056C110.32 13.8845 110.172 13.6229 110.086 13.3391C109.999 13.0553 109.975 12.756 110.015 12.462C109.976 12.1671 110 11.8672 110.087 11.5825C110.174 11.2978 110.321 11.0351 110.518 10.812C110.715 10.5889 110.959 10.4107 111.231 10.2895C111.504 10.1683 111.799 10.1069 112.097 10.1095C113.354 10.1095 114.112 10.9654 114.112 12.3794V12.6895H110.923V12.7393C110.909 12.9046 110.93 13.0709 110.984 13.2277C111.039 13.3844 111.125 13.5281 111.238 13.6496C111.352 13.771 111.489 13.8676 111.642 13.933C111.795 13.9984 111.959 14.0312 112.126 14.0293C112.339 14.0549 112.555 14.0166 112.746 13.9194C112.937 13.8222 113.095 13.6704 113.2 13.4834L114.058 13.4835ZM110.923 12.0323H113.204C113.215 11.8812 113.195 11.7294 113.143 11.5867C113.092 11.4439 113.012 11.3135 112.907 11.2036C112.803 11.0937 112.676 11.0069 112.536 10.9488C112.395 10.8906 112.244 10.8623 112.092 10.8658C111.938 10.8639 111.785 10.8927 111.643 10.9507C111.5 11.0086 111.37 11.0945 111.261 11.2032C111.152 11.3119 111.066 11.4413 111.008 11.5837C110.95 11.7261 110.921 11.8786 110.923 12.0323H110.923Z" fill="white"/>
</g>
<defs>
<clipPath id="clip0_1334_163012">
<rect width="136" height="40" fill="white"/>
</clipPath>
</defs>
</svg>
