<svg width="136" height="40" viewBox="0 0 136 40" fill="none" xmlns="http://www.w3.org/2000/svg">
<path d="M130.963 40H5.03704C2.2163 40 0 37.8 0 35V5C0 2.2 2.2163 0 5.03704 0H130.963C133.784 0 136 2.2 136 5V35C136 37.7 133.784 40 130.963 40Z" fill="#101722"/>
<path d="M130.963 0.8C133.28 0.8 135.194 2.7 135.194 5V35C135.194 37.3 133.28 39.2 130.963 39.2H5.03704C2.72 39.2 0.805926 37.3 0.805926 35V5C0.805926 2.7 2.72 0.8 5.03704 0.8H130.963ZM130.963 0H5.03704C2.2163 0 0 2.2 0 5V35C0 37.8 2.2163 40 5.03704 40H130.963C133.784 40 136 37.8 136 35V5C136 2.3 133.784 0 130.963 0Z" fill="#A6A6A6"/>
<path d="M47.4004 10.1984C47.4004 10.9984 47.2004 11.6984 46.7004 12.1984C46.1004 12.7984 45.4004 13.0984 44.5004 13.0984C43.6004 13.0984 42.9004 12.7984 42.3004 12.1984C41.7004 11.5984 41.4004 10.8984 41.4004 9.99844C41.4004 9.09844 41.7004 8.39844 42.3004 7.79844C42.9004 7.19844 43.6004 6.89844 44.5004 6.89844C44.9004 6.89844 45.3004 6.99844 45.7004 7.19844C46.1004 7.39844 46.4004 7.59844 46.6004 7.89844L46.1004 8.39844C45.7004 7.89844 45.2004 7.69844 44.5004 7.69844C43.9004 7.69844 43.3004 7.89844 42.9004 8.39844C42.4004 8.79844 42.2004 9.39844 42.2004 10.0984C42.2004 10.7984 42.4004 11.3984 42.9004 11.7984C43.4004 12.1984 43.9004 12.4984 44.5004 12.4984C45.2004 12.4984 45.7004 12.2984 46.2004 11.7984C46.5004 11.4984 46.7004 11.0984 46.7004 10.5984H44.5004V9.89844H47.4004C47.4004 9.89844 47.4004 10.0984 47.4004 10.1984Z" fill="white" stroke="white" stroke-width="0.2" stroke-miterlimit="10"/>
<path d="M52 7.7H49.3V9.6H51.8V10.3H49.3V12.2H52V13H48.5V7H52V7.7Z" fill="white" stroke="white" stroke-width="0.2" stroke-miterlimit="10"/>
<path d="M55.3008 13H54.5008V7.7H52.8008V7H57.0008V7.7H55.3008V13Z" fill="white" stroke="white" stroke-width="0.2" stroke-miterlimit="10"/>
<path d="M59.9004 13V7H60.7004V13H59.9004Z" fill="white" stroke="white" stroke-width="0.2" stroke-miterlimit="10"/>
<path d="M64.1016 13H63.3016V7.7H61.6016V7H65.7016V7.7H64.0016V13H64.1016Z" fill="white" stroke="white" stroke-width="0.2" stroke-miterlimit="10"/>
<path d="M73.6008 12.1984C73.0008 12.7984 72.3008 13.0984 71.4008 13.0984C70.5008 13.0984 69.8008 12.7984 69.2008 12.1984C68.6008 11.5984 68.3008 10.8984 68.3008 9.99844C68.3008 9.09844 68.6008 8.39844 69.2008 7.79844C69.8008 7.19844 70.5008 6.89844 71.4008 6.89844C72.3008 6.89844 73.0008 7.19844 73.6008 7.79844C74.2008 8.39844 74.5008 9.09844 74.5008 9.99844C74.5008 10.8984 74.2008 11.5984 73.6008 12.1984ZM69.8008 11.6984C70.2008 12.0984 70.8008 12.3984 71.4008 12.3984C72.0008 12.3984 72.6008 12.1984 73.0008 11.6984C73.4008 11.2984 73.7008 10.6984 73.7008 9.99844C73.7008 9.29844 73.5008 8.69844 73.0008 8.29844C72.6008 7.89844 72.0008 7.59844 71.4008 7.59844C70.8008 7.59844 70.2008 7.79844 69.8008 8.29844C69.4008 8.69844 69.1008 9.29844 69.1008 9.99844C69.1008 10.6984 69.3008 11.2984 69.8008 11.6984Z" fill="white" stroke="white" stroke-width="0.2" stroke-miterlimit="10"/>
<path d="M75.6016 13V7H76.5016L79.4016 11.7V10.5V7H80.2016V13H79.4016L76.3016 8.1V9.3V13H75.6016Z" fill="white" stroke="white" stroke-width="0.2" stroke-miterlimit="10"/>
<path d="M68.0996 21.8016C65.6996 21.8016 63.7996 23.6016 63.7996 26.1016C63.7996 28.5016 65.6996 30.4016 68.0996 30.4016C70.4996 30.4016 72.3996 28.6016 72.3996 26.1016C72.3996 23.5016 70.4996 21.8016 68.0996 21.8016ZM68.0996 28.6016C66.7996 28.6016 65.6996 27.5016 65.6996 26.0016C65.6996 24.5016 66.7996 23.4016 68.0996 23.4016C69.3996 23.4016 70.4996 24.4016 70.4996 26.0016C70.4996 27.5016 69.3996 28.6016 68.0996 28.6016ZM58.7996 21.8016C56.3996 21.8016 54.4996 23.6016 54.4996 26.1016C54.4996 28.5016 56.3996 30.4016 58.7996 30.4016C61.1996 30.4016 63.0996 28.6016 63.0996 26.1016C63.0996 23.5016 61.1996 21.8016 58.7996 21.8016ZM58.7996 28.6016C57.4996 28.6016 56.3996 27.5016 56.3996 26.0016C56.3996 24.5016 57.4996 23.4016 58.7996 23.4016C60.0996 23.4016 61.1996 24.4016 61.1996 26.0016C61.1996 27.5016 60.0996 28.6016 58.7996 28.6016ZM47.6996 23.1016V24.9016H51.9996C51.8996 25.9016 51.4996 26.7016 50.9996 27.2016C50.3996 27.8016 49.3996 28.5016 47.6996 28.5016C44.9996 28.5016 42.9996 26.4016 42.9996 23.7016C42.9996 21.0016 45.0996 18.9016 47.6996 18.9016C49.0996 18.9016 50.1996 19.5016 50.9996 20.2016L52.2996 18.9016C51.1996 17.9016 49.7996 17.1016 47.7996 17.1016C44.1996 17.1016 41.0996 20.1016 41.0996 23.7016C41.0996 27.3016 44.1996 30.3016 47.7996 30.3016C49.7996 30.3016 51.1996 29.7016 52.3996 28.4016C53.5996 27.2016 53.9996 25.5016 53.9996 24.2016C53.9996 23.8016 53.9996 23.4016 53.8996 23.1016H47.6996ZM93.0996 24.5016C92.6996 23.5016 91.6996 21.8016 89.4996 21.8016C87.2996 21.8016 85.4996 23.5016 85.4996 26.1016C85.4996 28.5016 87.2996 30.4016 89.6996 30.4016C91.5996 30.4016 92.7996 29.2016 93.1996 28.5016L91.7996 27.5016C91.2996 28.2016 90.6996 28.7016 89.6996 28.7016C88.6996 28.7016 88.0996 28.3016 87.5996 27.4016L93.2996 25.0016L93.0996 24.5016ZM87.2996 25.9016C87.2996 24.3016 88.5996 23.4016 89.4996 23.4016C90.1996 23.4016 90.8996 23.8016 91.0996 24.3016L87.2996 25.9016ZM82.5996 30.0016H84.4996V17.5016H82.5996V30.0016ZM79.5996 22.7016C79.0996 22.2016 78.2996 21.7016 77.2996 21.7016C75.1996 21.7016 73.1996 23.6016 73.1996 26.0016C73.1996 28.4016 75.0996 30.2016 77.2996 30.2016C78.2996 30.2016 79.0996 29.7016 79.4996 29.2016H79.5996V29.8016C79.5996 31.4016 78.6996 32.3016 77.2996 32.3016C76.1996 32.3016 75.3996 31.5016 75.1996 30.8016L73.5996 31.5016C74.0996 32.6016 75.2996 34.0016 77.3996 34.0016C79.5996 34.0016 81.3996 32.7016 81.3996 29.6016V22.0016H79.5996V22.7016ZM77.3996 28.6016C76.0996 28.6016 74.9996 27.5016 74.9996 26.0016C74.9996 24.5016 76.0996 23.4016 77.3996 23.4016C78.6996 23.4016 79.6996 24.5016 79.6996 26.0016C79.6996 27.5016 78.6996 28.6016 77.3996 28.6016ZM101.8 17.5016H97.2996V30.0016H99.1996V25.3016H101.8C103.9 25.3016 105.9 23.8016 105.9 21.4016C105.9 19.0016 103.9 17.5016 101.8 17.5016ZM101.9 23.5016H99.1996V19.2016H101.9C103.3 19.2016 104.1 20.4016 104.1 21.3016C104 22.4016 103.2 23.5016 101.9 23.5016ZM113.4 21.7016C112 21.7016 110.6 22.3016 110.1 23.6016L111.8 24.3016C112.2 23.6016 112.8 23.4016 113.5 23.4016C114.5 23.4016 115.4 24.0016 115.5 25.0016V25.1016C115.2 24.9016 114.4 24.6016 113.6 24.6016C111.8 24.6016 110 25.6016 110 27.4016C110 29.1016 111.5 30.2016 113.1 30.2016C114.4 30.2016 115 29.6016 115.5 29.0016H115.6V30.0016H117.4V25.2016C117.2 23.0016 115.5 21.7016 113.4 21.7016ZM113.2 28.6016C112.6 28.6016 111.7 28.3016 111.7 27.5016C111.7 26.5016 112.8 26.2016 113.7 26.2016C114.5 26.2016 114.9 26.4016 115.4 26.6016C115.2 27.8016 114.2 28.6016 113.2 28.6016ZM123.7 22.0016L121.6 27.4016H121.5L119.3 22.0016H117.3L120.6 29.6016L118.7 33.8016H120.6L125.7 22.0016H123.7ZM106.9 30.0016H108.8V17.5016H106.9V30.0016Z" fill="white"/>
<path d="M10.4004 7.5C10.1004 7.8 9.90039 8.3 9.90039 8.9V31C9.90039 31.6 10.1004 32.1 10.4004 32.4L10.5004 32.5L22.9004 20.1V20V19.9L10.4004 7.5Z" fill="url(#paint0_linear_1334_163047)"/>
<path d="M27.0004 24.3008L22.9004 20.2008V20.0008V19.9008L27.0004 15.8008L27.1004 15.9008L32.0004 18.7008C33.4004 19.5008 33.4004 20.8008 32.0004 21.6008L27.0004 24.3008Z" fill="url(#paint1_linear_1334_163047)"/>
<path d="M27.1004 24.2L22.9004 20L10.4004 32.5C10.9004 33 11.6004 33 12.5004 32.6L27.1004 24.2Z" fill="url(#paint2_linear_1334_163047)"/>
<path d="M27.1004 15.8006L12.5004 7.5006C11.6004 7.0006 10.9004 7.1006 10.4004 7.6006L22.9004 20.0006L27.1004 15.8006Z" fill="url(#paint3_linear_1334_163047)"/>
<path opacity="0.2" d="M27.0004 24.1016L12.5004 32.3016C11.7004 32.8016 11.0004 32.7016 10.5004 32.3016L10.4004 32.4016L10.5004 32.5016C11.0004 32.9016 11.7004 33.0016 12.5004 32.5016L27.0004 24.1016Z" fill="black"/>
<path opacity="0.12" d="M10.4 32.3023C10.1 32.0023 10 31.5023 10 30.9023V31.0023C10 31.6023 10.2 32.1023 10.5 32.4023V32.3023H10.4Z" fill="black"/>
<path opacity="0.12" d="M32 21.3L27 24.1L27.1 24.2L32 21.4C32.7 21 33 20.5 33 20C33 20.5 32.6 20.9 32 21.3Z" fill="black"/>
<path opacity="0.25" d="M12.5 7.60037L32 18.7004C32.6 19.1004 33 19.5004 33 20.0004C33 19.5004 32.7 19.0004 32 18.6004L12.5 7.50037C11.1 6.70037 10 7.40037 10 9.00037V9.10037C10 7.50037 11.1 6.80037 12.5 7.60037Z" fill="white"/>
<defs>
<linearGradient id="paint0_linear_1334_163047" x1="21.8001" y1="8.7097" x2="5.01769" y2="25.4921" gradientUnits="userSpaceOnUse">
<stop stop-color="#00A0FF"/>
<stop offset="0.00657445" stop-color="#00A1FF"/>
<stop offset="0.2601" stop-color="#00BEFF"/>
<stop offset="0.5122" stop-color="#00D2FF"/>
<stop offset="0.7604" stop-color="#00DFFF"/>
<stop offset="1" stop-color="#00E3FF"/>
</linearGradient>
<linearGradient id="paint1_linear_1334_163047" x1="33.8348" y1="20.0022" x2="9.63789" y2="20.0022" gradientUnits="userSpaceOnUse">
<stop stop-color="#FFE000"/>
<stop offset="0.4087" stop-color="#FFBD00"/>
<stop offset="0.7754" stop-color="#FFA500"/>
<stop offset="1" stop-color="#FF9C00"/>
</linearGradient>
<linearGradient id="paint2_linear_1334_163047" x1="24.8274" y1="22.2961" x2="2.06909" y2="45.0544" gradientUnits="userSpaceOnUse">
<stop stop-color="#FF3A44"/>
<stop offset="1" stop-color="#C31162"/>
</linearGradient>
<linearGradient id="paint3_linear_1334_163047" x1="7.29769" y1="0.1768" x2="17.4603" y2="10.3393" gradientUnits="userSpaceOnUse">
<stop stop-color="#32A071"/>
<stop offset="0.0685" stop-color="#2DA771"/>
<stop offset="0.4762" stop-color="#15CF74"/>
<stop offset="0.8009" stop-color="#06E775"/>
<stop offset="1" stop-color="#00F076"/>
</linearGradient>
</defs>
</svg>
